<mxfile host="app.diagrams.net" modified="2021-11-17T10:47:43.271Z" agent="5.0 (Windows NT 10.0; Win64; x64) AppleWebKit/537.36 (KHTML, like Gecko) Chrome/95.0.4638.69 Safari/537.36" etag="a79ZZ5Kk3oENMmRHUl6y" version="15.7.4" type="github">
  <diagram id="hLsinLudQVHbCY77gqGn" name="Page-1">
    <mxGraphModel dx="904" dy="579" grid="1" gridSize="10" guides="1" tooltips="1" connect="1" arrows="1" fold="1" page="1" pageScale="1" pageWidth="850" pageHeight="1100" math="0" shadow="0">
      <root>
        <mxCell id="0" />
        <mxCell id="1" parent="0" />
        <mxCell id="7SpxLxo3xdI1lraLpYqN-14" value="" style="line;strokeWidth=2;html=1;" vertex="1" parent="1">
          <mxGeometry x="400" y="417" width="160" height="10" as="geometry" />
        </mxCell>
        <mxCell id="7SpxLxo3xdI1lraLpYqN-1" value="" style="line;strokeWidth=2;html=1;" vertex="1" parent="1">
          <mxGeometry x="160" y="297" width="820" height="10" as="geometry" />
        </mxCell>
        <mxCell id="7SpxLxo3xdI1lraLpYqN-2" value="main" style="text;html=1;strokeColor=none;fillColor=none;align=center;verticalAlign=middle;whiteSpace=wrap;rounded=0;" vertex="1" parent="1">
          <mxGeometry x="80" y="287" width="60" height="30" as="geometry" />
        </mxCell>
        <mxCell id="7SpxLxo3xdI1lraLpYqN-3" value="The Development Branch" style="text;html=1;strokeColor=none;fillColor=none;align=center;verticalAlign=middle;whiteSpace=wrap;rounded=0;" vertex="1" parent="1">
          <mxGeometry x="35" y="337" width="150" height="30" as="geometry" />
        </mxCell>
        <mxCell id="7SpxLxo3xdI1lraLpYqN-12" style="edgeStyle=orthogonalEdgeStyle;rounded=0;orthogonalLoop=1;jettySize=auto;html=1;exitX=1;exitY=0.5;exitDx=0;exitDy=0;entryX=0;entryY=0.5;entryDx=0;entryDy=0;curved=1;endArrow=none;endFill=0;" edge="1" parent="1" source="7SpxLxo3xdI1lraLpYqN-4" target="7SpxLxo3xdI1lraLpYqN-6">
          <mxGeometry relative="1" as="geometry" />
        </mxCell>
        <mxCell id="7SpxLxo3xdI1lraLpYqN-4" value="" style="ellipse;whiteSpace=wrap;html=1;aspect=fixed;fillColor=#ffe6cc;strokeColor=#d79b00;" vertex="1" parent="1">
          <mxGeometry x="230" y="287" width="30" height="30" as="geometry" />
        </mxCell>
        <mxCell id="7SpxLxo3xdI1lraLpYqN-5" value="Tag: 1.0.0" style="text;html=1;strokeColor=none;fillColor=none;align=center;verticalAlign=middle;whiteSpace=wrap;rounded=0;" vertex="1" parent="1">
          <mxGeometry x="215" y="247" width="60" height="30" as="geometry" />
        </mxCell>
        <mxCell id="7SpxLxo3xdI1lraLpYqN-6" value="" style="ellipse;whiteSpace=wrap;html=1;aspect=fixed;fillColor=#dae8fc;strokeColor=#6c8ebf;" vertex="1" parent="1">
          <mxGeometry x="370" y="407" width="30" height="30" as="geometry" />
        </mxCell>
        <mxCell id="7SpxLxo3xdI1lraLpYqN-7" value="" style="ellipse;whiteSpace=wrap;html=1;aspect=fixed;fillColor=#dae8fc;strokeColor=#6c8ebf;" vertex="1" parent="1">
          <mxGeometry x="465" y="407" width="35" height="35" as="geometry" />
        </mxCell>
        <mxCell id="7SpxLxo3xdI1lraLpYqN-17" style="edgeStyle=orthogonalEdgeStyle;curved=1;rounded=0;orthogonalLoop=1;jettySize=auto;html=1;exitX=1;exitY=0.5;exitDx=0;exitDy=0;entryX=0;entryY=0.5;entryDx=0;entryDy=0;endArrow=none;endFill=0;" edge="1" parent="1" source="7SpxLxo3xdI1lraLpYqN-8" target="7SpxLxo3xdI1lraLpYqN-15">
          <mxGeometry relative="1" as="geometry" />
        </mxCell>
        <mxCell id="7SpxLxo3xdI1lraLpYqN-8" value="" style="ellipse;whiteSpace=wrap;html=1;aspect=fixed;fillColor=#dae8fc;strokeColor=#6c8ebf;" vertex="1" parent="1">
          <mxGeometry x="560" y="407" width="30" height="30" as="geometry" />
        </mxCell>
        <mxCell id="7SpxLxo3xdI1lraLpYqN-15" value="" style="ellipse;whiteSpace=wrap;html=1;aspect=fixed;fillColor=#ffe6cc;strokeColor=#d79b00;" vertex="1" parent="1">
          <mxGeometry x="670" y="287" width="30" height="30" as="geometry" />
        </mxCell>
        <mxCell id="7SpxLxo3xdI1lraLpYqN-16" value="Tag: 1.1.0" style="text;html=1;strokeColor=none;fillColor=none;align=center;verticalAlign=middle;whiteSpace=wrap;rounded=0;" vertex="1" parent="1">
          <mxGeometry x="610" y="247" width="60" height="30" as="geometry" />
        </mxCell>
        <mxCell id="7SpxLxo3xdI1lraLpYqN-18" value="feature-jira-example" style="text;html=1;strokeColor=none;fillColor=none;align=center;verticalAlign=middle;whiteSpace=wrap;rounded=0;" vertex="1" parent="1">
          <mxGeometry x="150" y="407" width="140" height="30" as="geometry" />
        </mxCell>
        <mxCell id="7SpxLxo3xdI1lraLpYqN-19" value="Your Feature Branch" style="text;html=1;strokeColor=none;fillColor=none;align=center;verticalAlign=middle;whiteSpace=wrap;rounded=0;" vertex="1" parent="1">
          <mxGeometry x="150" y="437" width="150" height="30" as="geometry" />
        </mxCell>
        <mxCell id="7SpxLxo3xdI1lraLpYqN-20" value="" style="ellipse;whiteSpace=wrap;html=1;aspect=fixed;fillColor=#ffe6cc;strokeColor=#d79b00;" vertex="1" parent="1">
          <mxGeometry x="780" y="287" width="30" height="30" as="geometry" />
        </mxCell>
        <mxCell id="7SpxLxo3xdI1lraLpYqN-21" value="" style="ellipse;whiteSpace=wrap;html=1;aspect=fixed;fillColor=#ffe6cc;strokeColor=#d79b00;" vertex="1" parent="1">
          <mxGeometry x="890" y="287" width="30" height="30" as="geometry" />
        </mxCell>
        <mxCell id="7SpxLxo3xdI1lraLpYqN-22" value="Tag: 1.2.0" style="text;html=1;strokeColor=none;fillColor=none;align=center;verticalAlign=middle;whiteSpace=wrap;rounded=0;" vertex="1" parent="1">
          <mxGeometry x="875" y="247" width="60" height="30" as="geometry" />
        </mxCell>
        <mxCell id="7SpxLxo3xdI1lraLpYqN-29" style="edgeStyle=orthogonalEdgeStyle;curved=1;rounded=0;orthogonalLoop=1;jettySize=auto;html=1;exitX=0;exitY=0.5;exitDx=0;exitDy=0;entryX=1;entryY=0.5;entryDx=0;entryDy=0;endArrow=none;endFill=0;" edge="1" parent="1" source="7SpxLxo3xdI1lraLpYqN-23" target="7SpxLxo3xdI1lraLpYqN-15">
          <mxGeometry relative="1" as="geometry" />
        </mxCell>
        <mxCell id="7SpxLxo3xdI1lraLpYqN-30" style="edgeStyle=orthogonalEdgeStyle;curved=1;rounded=0;orthogonalLoop=1;jettySize=auto;html=1;exitX=1;exitY=0.5;exitDx=0;exitDy=0;entryX=0;entryY=0.5;entryDx=0;entryDy=0;endArrow=none;endFill=0;" edge="1" parent="1" source="7SpxLxo3xdI1lraLpYqN-23" target="7SpxLxo3xdI1lraLpYqN-21">
          <mxGeometry relative="1" as="geometry" />
        </mxCell>
        <mxCell id="7SpxLxo3xdI1lraLpYqN-23" value="" style="ellipse;whiteSpace=wrap;html=1;aspect=fixed;fillColor=#f8cecc;strokeColor=#b85450;" vertex="1" parent="1">
          <mxGeometry x="780" y="140" width="30" height="30" as="geometry" />
        </mxCell>
        <mxCell id="7SpxLxo3xdI1lraLpYqN-26" value="fix-kernel-panic-bug" style="text;html=1;strokeColor=none;fillColor=none;align=center;verticalAlign=middle;whiteSpace=wrap;rounded=0;" vertex="1" parent="1">
          <mxGeometry x="615" y="140" width="140" height="30" as="geometry" />
        </mxCell>
        <mxCell id="7SpxLxo3xdI1lraLpYqN-27" value="Your bug fix branch" style="text;html=1;strokeColor=none;fillColor=none;align=center;verticalAlign=middle;whiteSpace=wrap;rounded=0;" vertex="1" parent="1">
          <mxGeometry x="615" y="170" width="140" height="30" as="geometry" />
        </mxCell>
        <mxCell id="7SpxLxo3xdI1lraLpYqN-28" value="Hotfix Commit" style="text;html=1;strokeColor=none;fillColor=none;align=center;verticalAlign=middle;whiteSpace=wrap;rounded=0;" vertex="1" parent="1">
          <mxGeometry x="725" y="90" width="140" height="30" as="geometry" />
        </mxCell>
      </root>
    </mxGraphModel>
  </diagram>
</mxfile>
